<svg id="visual" viewBox="0 0 900 450" width="900" height="450" xmlns="http://www.w3.org/2000/svg" xmlns:xlink="http://www.w3.org/1999/xlink" version="1.1"><rect x="0" y="0" width="900" height="450" fill="#003707"></rect><defs><linearGradient id="grad1_0" x1="50%" y1="0%" x2="100%" y2="100%"><stop offset="10%" stop-color="#fbae3c" stop-opacity="1"></stop><stop offset="90%" stop-color="#fbae3c" stop-opacity="1"></stop></linearGradient></defs><defs><linearGradient id="grad1_1" x1="50%" y1="0%" x2="100%" y2="100%"><stop offset="10%" stop-color="#fbae3c" stop-opacity="1"></stop><stop offset="90%" stop-color="#b1941d" stop-opacity="1"></stop></linearGradient></defs><defs><linearGradient id="grad1_2" x1="50%" y1="0%" x2="100%" y2="100%"><stop offset="10%" stop-color="#6f770d" stop-opacity="1"></stop><stop offset="90%" stop-color="#b1941d" stop-opacity="1"></stop></linearGradient></defs><defs><linearGradient id="grad1_3" x1="50%" y1="0%" x2="100%" y2="100%"><stop offset="10%" stop-color="#6f770d" stop-opacity="1"></stop><stop offset="90%" stop-color="#37580a" stop-opacity="1"></stop></linearGradient></defs><defs><linearGradient id="grad1_4" x1="50%" y1="0%" x2="100%" y2="100%"><stop offset="10%" stop-color="#003707" stop-opacity="1"></stop><stop offset="90%" stop-color="#37580a" stop-opacity="1"></stop></linearGradient></defs><defs><linearGradient id="grad2_0" x1="0%" y1="0%" x2="50%" y2="100%"><stop offset="10%" stop-color="#fbae3c" stop-opacity="1"></stop><stop offset="90%" stop-color="#fbae3c" stop-opacity="1"></stop></linearGradient></defs><defs><linearGradient id="grad2_1" x1="0%" y1="0%" x2="50%" y2="100%"><stop offset="10%" stop-color="#b1941d" stop-opacity="1"></stop><stop offset="90%" stop-color="#fbae3c" stop-opacity="1"></stop></linearGradient></defs><defs><linearGradient id="grad2_2" x1="0%" y1="0%" x2="50%" y2="100%"><stop offset="10%" stop-color="#b1941d" stop-opacity="1"></stop><stop offset="90%" stop-color="#6f770d" stop-opacity="1"></stop></linearGradient></defs><defs><linearGradient id="grad2_3" x1="0%" y1="0%" x2="50%" y2="100%"><stop offset="10%" stop-color="#37580a" stop-opacity="1"></stop><stop offset="90%" stop-color="#6f770d" stop-opacity="1"></stop></linearGradient></defs><defs><linearGradient id="grad2_4" x1="0%" y1="0%" x2="50%" y2="100%"><stop offset="10%" stop-color="#37580a" stop-opacity="1"></stop><stop offset="90%" stop-color="#003707" stop-opacity="1"></stop></linearGradient></defs><g transform="translate(900, 0)"><path d="M0 360C-26 324.2 -52 288.4 -92.4 284.4C-132.8 280.4 -187.7 308.2 -211.6 291.2C-235.5 274.3 -228.6 212.7 -241.9 175.7C-255.2 138.8 -288.9 126.5 -311.9 101.4C-335 76.2 -347.5 38.1 -360 0L0 0Z" fill="#1d4709"></path><path d="M0 288C-20.8 259.3 -41.6 230.7 -73.9 227.5C-106.3 224.3 -150.1 246.5 -169.3 233C-188.4 219.5 -182.8 170.2 -193.5 140.6C-204.2 111 -231.1 101.2 -249.6 81.1C-268 60.9 -278 30.5 -288 0L0 0Z" fill="#52680b"></path><path d="M0 216C-15.6 194.5 -31.2 173 -55.4 170.6C-79.7 168.2 -112.6 184.9 -127 174.7C-141.3 164.6 -137.1 127.6 -145.1 105.4C-153.1 83.3 -173.3 75.9 -187.2 60.8C-201 45.7 -208.5 22.9 -216 0L0 0Z" fill="#8f8613"></path><path d="M0 144C-10.4 129.7 -20.8 115.3 -37 113.7C-53.1 112.1 -75.1 123.3 -84.6 116.5C-94.2 109.7 -91.4 85.1 -96.8 70.3C-102.1 55.5 -115.6 50.6 -124.8 40.5C-134 30.5 -139 15.2 -144 0L0 0Z" fill="#d5a22b"></path><path d="M0 72C-5.2 64.8 -10.4 57.7 -18.5 56.9C-26.6 56.1 -37.5 61.6 -42.3 58.2C-47.1 54.9 -45.7 42.5 -48.4 35.1C-51 27.8 -57.8 25.3 -62.4 20.3C-67 15.2 -69.5 7.6 -72 0L0 0Z" fill="#fbae3c"></path></g><g transform="translate(0, 450)"><path d="M0 -360C41.3 -356.9 82.6 -353.9 106.6 -328.1C130.6 -302.4 137.2 -254 171.6 -236.2C206 -218.5 268.1 -231.4 291.2 -211.6C314.3 -191.8 298.4 -139.3 303.4 -98.6C308.3 -57.9 334.2 -28.9 360 0L0 0Z" fill="#1d4709"></path><path d="M0 -288C33.1 -285.5 66.1 -283.1 85.3 -262.5C104.5 -241.9 109.8 -203.2 137.3 -189C164.8 -174.8 214.5 -185.1 233 -169.3C251.5 -153.4 238.7 -111.4 242.7 -78.9C246.7 -46.3 267.3 -23.1 288 0L0 0Z" fill="#52680b"></path><path d="M0 -216C24.8 -214.2 49.6 -212.3 64 -196.9C78.4 -181.4 82.3 -152.4 103 -141.7C123.6 -131.1 160.9 -138.8 174.7 -127C188.6 -115.1 179.1 -83.6 182 -59.1C185 -34.7 200.5 -17.4 216 0L0 0Z" fill="#8f8613"></path><path d="M0 -144C16.5 -142.8 33.1 -141.5 42.6 -131.2C52.2 -121 54.9 -101.6 68.7 -94.5C82.4 -87.4 107.3 -92.6 116.5 -84.6C125.7 -76.7 119.4 -55.7 121.4 -39.4C123.3 -23.1 133.7 -11.6 144 0L0 0Z" fill="#d5a22b"></path><path d="M0 -72C8.3 -71.4 16.5 -70.8 21.3 -65.6C26.1 -60.5 27.4 -50.8 34.3 -47.2C41.2 -43.7 53.6 -46.3 58.2 -42.3C62.9 -38.4 59.7 -27.9 60.7 -19.7C61.7 -11.6 66.8 -5.8 72 0L0 0Z" fill="#fbae3c"></path></g></svg>